<?xml version="1.0" encoding="UTF-8" standalone="no"?>
<!DOCTYPE svg PUBLIC "-//W3C//DTD SVG 1.1//EN"
 "http://www.w3.org/Graphics/SVG/1.1/DTD/svg11.dtd">
<!-- Generated by graphviz version 2.36.0 (20140111.2315)
 -->
<!-- Title: angular_http_digest Pages: 1 -->
<svg width="948pt" height="362pt"
 viewBox="0.00 0.00 948.00 361.77" xmlns="http://www.w3.org/2000/svg" xmlns:xlink="http://www.w3.org/1999/xlink">
<g id="graph0" class="graph" transform="scale(1 1) rotate(0) translate(4 357.77)">
<title>angular_http_digest</title>
<polygon fill="white" stroke="none" points="-4,4 -4,-357.77 944,-357.77 944,4 -4,4"/>
<!-- loginError -->
<g id="node1" class="node"><title>loginError</title>
<ellipse fill="none" stroke="black" cx="55" cy="-157.77" rx="47.3916" ry="18"/>
<text text-anchor="middle" x="55" y="-154.07" font-family="Times,serif" font-size="14.00">loginError</text>
</g>
<!-- settingCredentials -->
<g id="node4" class="node"><title>settingCredentials</title>
<ellipse fill="none" stroke="black" cx="328" cy="-183.77" rx="74.187" ry="18"/>
<text text-anchor="middle" x="328" y="-180.07" font-family="Times,serif" font-size="14.00">settingCredentials</text>
</g>
<!-- loginError&#45;&gt;settingCredentials -->
<g id="edge12" class="edge"><title>loginError&#45;&gt;settingCredentials</title>
<path fill="none" stroke="black" stroke-dasharray="5,2" d="M101.359,-162.122C141.521,-165.975 201.019,-171.683 248.836,-176.271"/>
<polygon fill="black" stroke="black" points="248.562,-179.761 258.851,-177.232 249.231,-172.793 248.562,-179.761"/>
<text text-anchor="middle" x="178" y="-178.57" font-family="Times,serif" font-size="14.00">submitted</text>
</g>
<!-- init -->
<g id="node2" class="node"><title>init</title>
<ellipse fill="none" stroke="black" cx="328" cy="-331.77" rx="27" ry="18"/>
<ellipse fill="none" stroke="black" cx="328" cy="-331.77" rx="31" ry="22"/>
<text text-anchor="middle" x="328" y="-328.07" font-family="Times,serif" font-size="14.00">init</text>
</g>
<!-- restoringCredentials -->
<g id="node3" class="node"><title>restoringCredentials</title>
<ellipse fill="none" stroke="black" cx="328" cy="-255.77" rx="81.7856" ry="18"/>
<text text-anchor="middle" x="328" y="-252.07" font-family="Times,serif" font-size="14.00">restoringCredentials</text>
</g>
<!-- init&#45;&gt;restoringCredentials -->
<g id="edge1" class="edge"><title>init&#45;&gt;restoringCredentials</title>
<path fill="none" stroke="black" stroke-dasharray="5,2" d="M328,-310.1C328,-301.933 328,-292.524 328,-283.855"/>
<polygon fill="black" stroke="black" points="331.5,-283.781 328,-273.781 324.5,-283.781 331.5,-283.781"/>
<text text-anchor="middle" x="317.5" y="-288.07" font-family="Times,serif" font-size="14.00">run</text>
</g>
<!-- restoringCredentials&#45;&gt;settingCredentials -->
<g id="edge2" class="edge"><title>restoringCredentials&#45;&gt;settingCredentials</title>
<path fill="none" stroke="black" d="M328,-237.357C328,-229.711 328,-220.662 328,-212.197"/>
<polygon fill="black" stroke="black" points="331.5,-211.939 328,-201.939 324.5,-211.939 331.5,-211.939"/>
<text text-anchor="middle" x="317.5" y="-216.07" font-family="Times,serif" font-size="14.00">restored</text>
</g>
<!-- loginRequest -->
<g id="node5" class="node"><title>loginRequest</title>
<ellipse fill="none" stroke="black" cx="328" cy="-111.77" rx="57.3905" ry="18"/>
<text text-anchor="middle" x="328" y="-108.07" font-family="Times,serif" font-size="14.00">loginRequest</text>
</g>
<!-- settingCredentials&#45;&gt;loginRequest -->
<g id="edge3" class="edge"><title>settingCredentials&#45;&gt;loginRequest</title>
<path fill="none" stroke="black" stroke-dasharray="5,2" d="M328,-165.357C328,-157.711 328,-148.662 328,-140.197"/>
<polygon fill="black" stroke="black" points="331.5,-139.939 328,-129.939 324.5,-139.939 331.5,-139.939"/>
<text text-anchor="middle" x="317.5" y="-144.07" font-family="Times,serif" font-size="14.00">signin</text>
</g>
<!-- loginRequest&#45;&gt;loginError -->
<g id="edge7" class="edge"><title>loginRequest&#45;&gt;loginError</title>
<path fill="none" stroke="black" d="M270.612,-113.203C230.419,-115.179 175.342,-119.836 128,-130.77 117.453,-133.206 106.363,-136.808 96.1338,-140.592"/>
<polygon fill="black" stroke="black" points="94.7128,-137.389 86.6352,-144.244 97.2251,-143.922 94.7128,-137.389"/>
<text text-anchor="middle" x="178" y="-149.57" font-family="Times,serif" font-size="14.00">401 (unauthorised</text>
<text text-anchor="middle" x="178" y="-134.57" font-family="Times,serif" font-size="14.00">&amp; credentials)</text>
</g>
<!-- loggedIn -->
<g id="node6" class="node"><title>loggedIn</title>
<ellipse fill="none" stroke="black" cx="328" cy="-39.77" rx="42.4939" ry="18"/>
<text text-anchor="middle" x="328" y="-36.07" font-family="Times,serif" font-size="14.00">loggedIn</text>
</g>
<!-- loginRequest&#45;&gt;loggedIn -->
<g id="edge4" class="edge"><title>loginRequest&#45;&gt;loggedIn</title>
<path fill="none" stroke="black" d="M328,-93.3568C328,-85.7108 328,-76.6616 328,-68.1975"/>
<polygon fill="black" stroke="black" points="331.5,-67.9386 328,-57.9387 324.5,-67.9387 331.5,-67.9386"/>
<text text-anchor="middle" x="317.5" y="-72.07" font-family="Times,serif" font-size="14.00">201 (success)</text>
</g>
<!-- failureLogin -->
<g id="node7" class="node"><title>failureLogin</title>
<ellipse fill="none" stroke="black" cx="55" cy="-77.77" rx="54.6905" ry="18"/>
<text text-anchor="middle" x="55" y="-74.07" font-family="Times,serif" font-size="14.00">failureLogin</text>
</g>
<!-- loginRequest&#45;&gt;failureLogin -->
<g id="edge6" class="edge"><title>loginRequest&#45;&gt;failureLogin</title>
<path fill="none" stroke="black" d="M292.859,-97.4185C274.085,-90.2899 250.165,-82.433 228,-78.77 192.11,-72.8388 151.431,-72.3259 118.646,-73.4177"/>
<polygon fill="black" stroke="black" points="118.151,-69.9343 108.296,-73.8237 118.425,-76.9289 118.151,-69.9343"/>
<text text-anchor="middle" x="178" y="-97.57" font-family="Times,serif" font-size="14.00">401 (unauthorised</text>
<text text-anchor="middle" x="178" y="-82.57" font-family="Times,serif" font-size="14.00">&amp; limit reached)</text>
</g>
<!-- waitingCredentials -->
<g id="node9" class="node"><title>waitingCredentials</title>
<ellipse fill="none" stroke="black" cx="628" cy="-101.77" rx="77.1866" ry="18"/>
<text text-anchor="middle" x="628" y="-98.07" font-family="Times,serif" font-size="14.00">waitingCredentials</text>
</g>
<!-- loginRequest&#45;&gt;waitingCredentials -->
<g id="edge5" class="edge"><title>loginRequest&#45;&gt;waitingCredentials</title>
<path fill="none" stroke="black" d="M385.052,-109.889C428.98,-108.415 490.856,-106.339 541.036,-104.655"/>
<polygon fill="black" stroke="black" points="541.355,-108.146 551.231,-104.313 541.12,-101.15 541.355,-108.146"/>
<text text-anchor="middle" x="480" y="-127.57" font-family="Times,serif" font-size="14.00">401 (unauthorised</text>
<text text-anchor="middle" x="480" y="-112.57" font-family="Times,serif" font-size="14.00">&amp; no credentials)</text>
</g>
<!-- logoutRequest -->
<g id="node8" class="node"><title>logoutRequest</title>
<ellipse fill="none" stroke="black" cx="878" cy="-40.77" rx="61.99" ry="18"/>
<text text-anchor="middle" x="878" y="-37.07" font-family="Times,serif" font-size="14.00">logoutRequest</text>
</g>
<!-- loggedIn&#45;&gt;logoutRequest -->
<g id="edge10" class="edge"><title>loggedIn&#45;&gt;logoutRequest</title>
<path fill="none" stroke="black" stroke-dasharray="5,2" d="M370.639,-39.846C463.742,-40.0159 689.665,-40.4282 805.668,-40.6399"/>
<polygon fill="black" stroke="black" points="805.858,-44.1401 815.865,-40.6585 805.871,-37.1401 805.858,-44.1401"/>
<text text-anchor="middle" x="628" y="-44.57" font-family="Times,serif" font-size="14.00">signout</text>
</g>
<!-- loggedIn&#45;&gt;waitingCredentials -->
<g id="edge11" class="edge"><title>loggedIn&#45;&gt;waitingCredentials</title>
<path fill="none" stroke="black" d="M366.44,-47.5596C414.836,-57.6285 499.971,-75.3413 559.722,-87.7725"/>
<polygon fill="black" stroke="black" points="559.321,-91.2641 569.825,-89.8745 560.747,-84.4109 559.321,-91.2641"/>
<text text-anchor="middle" x="480" y="-85.57" font-family="Times,serif" font-size="14.00">401 (unauthorised)</text>
</g>
<!-- logoutRequest&#45;&gt;loggedIn -->
<g id="edge8" class="edge"><title>logoutRequest&#45;&gt;loggedIn</title>
<path fill="none" stroke="black" d="M832.778,-28.4837C798.498,-19.6244 749.642,-8.43756 706,-3.77004 586.985,8.95863 446.592,-14.6209 375.41,-29.3064"/>
<polygon fill="black" stroke="black" points="374.489,-25.9234 365.421,-31.4032 375.927,-32.7741 374.489,-25.9234"/>
<text text-anchor="middle" x="628" y="-7.57004" font-family="Times,serif" font-size="14.00">401 (unauthorised)</text>
</g>
<!-- logoutRequest&#45;&gt;waitingCredentials -->
<g id="edge9" class="edge"><title>logoutRequest&#45;&gt;waitingCredentials</title>
<path fill="none" stroke="black" d="M830.04,-52.3206C790.868,-61.9557 734.707,-75.7694 691.696,-86.3489"/>
<polygon fill="black" stroke="black" points="690.773,-82.9716 681.898,-88.7588 692.445,-89.769 690.773,-82.9716"/>
<text text-anchor="middle" x="761" y="-80.57" font-family="Times,serif" font-size="14.00">201 (success)</text>
</g>
<!-- waitingCredentials&#45;&gt;settingCredentials -->
<g id="edge13" class="edge"><title>waitingCredentials&#45;&gt;settingCredentials</title>
<path fill="none" stroke="black" stroke-dasharray="5,2" d="M593.793,-118.126C575.841,-126.447 553.086,-136.17 532,-142.77 489.792,-155.982 441.278,-165.963 402.262,-172.768"/>
<polygon fill="black" stroke="black" points="401.308,-169.381 392.041,-174.517 402.488,-176.28 401.308,-169.381"/>
<text text-anchor="middle" x="480" y="-171.57" font-family="Times,serif" font-size="14.00">submitted</text>
</g>
</g>
</svg>
